#!OML:ASF H:\Terrain\Patient Classification 1\Walking\liu\liu.ASF
:FULLY-SPECIFIED
:DEGREES
16
root 8.01617 15.7105 -37.4759 10.2963 -7.44233 -4.74259
lowerback -4.32347 3.00035 0.0290097
upperback -0.67178 3.93649 3.55678
thorax 1.47994 1.96424 3.85805
lowerneck -22.0224 -4.27841 -12.2189
upperneck 19.077 -4.5719 11.1592
head 10.2824 -1.70502 5.34488
rclavicle -8.24956e-015 0
rhumerus -13.6068 38.7757 -84.6811
rradius 46.9651
rwrist -23.0883
rhand -32.8694 -21.2784
rfingers 7.12502
rthumb -6.0881 -51.1709
lclavicle -8.24956e-015 0
lhumerus -56.1336 -6.22074 89.3103
lradius 23.0693
lwrist 0.891112
lhand -12.1059 -17.232
lfingers 7.12502
lthumb 13.955 12.2797
rfemur 0.770255 4.33292 30.1457
rtibia 18.7186
rfoot -19.5516 4.50239
rtoes -14.245
lfemur -45.9139 3.94326 -13.2995
ltibia 27.567
lfoot -11.9288 9.96938
ltoes -9.40346
17
root 8.02887 15.6812 -37.2417 10.8536 -7.21231 -6.45193
lowerback -4.77295 3.16573 1.81642
upperback -0.751596 4.04803 3.91809
thorax 1.73931 2.02521 3.26618
lowerneck -21.6584 -4.28801 -12.2498
upperneck 18.786 -4.63019 11.2929
head 10.1243 -1.72703 5.37987
rclavicle 7.85199e-015 1.98785e-014
rhumerus -12.3153 39.1045 -83.7906
rradius 47.6634
rwrist -23.0666
rhand -32.2318 -20.8396
rfingers 7.12502
rthumb -5.47255 -50.749
lclavicle 7.85199e-015 1.98785e-014
lhumerus -56.7788 -5.6635 88.2076
lradius 22.5762
lwrist 0.383729
lhand -11.6836 -16.2422
lfingers 7.12502
lthumb 14.3618 13.241
rfemur 1.76662 4.63427 31.8428
rtibia 17.7506
rfoot -19.2003 4.57262
rtoes -13.6768
lfemur -46.4374 3.18088 -10.5729
ltibia 24.8287
lfoot -12.1416 9.66994
ltoes -7.59696
18
root 8.04867 15.6898 -36.986 10.4115 -7.92715 -5.9369
lowerback -4.8279 3.42985 1.3464
upperback -0.41519 4.41404 3.72114
thorax 2.08131 2.20281 3.36475
lowerneck -21.1638 -4.20565 -12.5908
upperneck 18.0723 -4.54591 11.8658
head 9.79466 -1.65877 5.63822
rclavicle -2.75317e-014 -2.22639e-014
rhumerus -10.7269 39.4766 -82.5825
rradius 48.3438
rwrist -23.1663
rhand -32.0494 -21.2623
rfingers 7.12502
rthumb -5.29639 -51.1762
lclavicle -2.75317e-014 -2.22639e-014
lhumerus -57.3433 -4.78879 86.9978
lradius 22.0821
lwrist -0.0312866
lhand -11.0935 -17.2494
lfingers 7.12502
lthumb 14.9304 12.1925
rfemur 3.94444 5.29076 30.8784
rtibia 16.293
rfoot -18.0736 5.32863
rtoes -11.2657
lfemur -45.7277 1.80053 -9.91432
ltibia 22.7301
lfoot -11.9013 10.5601
ltoes -8.02122
19
root 8.07007 15.67 -36.7345 10.4312 -8.08047 -6.03699
lowerback -5.23296 3.50709 1.47386
upperback -0.147997 4.48226 3.76914
thorax 2.58636 2.23327 3.39022
lowerneck -21.826 -4.25318 -12.4218
upperneck 18.4055 -4.54259 11.5733
head 10.0199 -1.66061 5.51532
rclavicle -2.5345e-015 3.97569e-014
rhumerus -8.9188 40.0512 -81.2086
rradius 48.9727
rwrist -23.4345
rhand -32.1343 -21.9587
rfingers 7.12502
rthumb -5.37843 -51.8705
lclavicle -2.5345e-015 3.97569e-014
lhumerus -57.6522 -3.49037 85.548
lradius 21.3936
lwrist -0.45785
lhand -10.7845 -18.8727
lfingers 7.12502
lthumb 15.2281 10.5469
rfemur 5.56626 5.35729 30.6148
rtibia 14.6884
rfoot -16.6423 6.19947
rtoes -8.65465
lfemur -45.8846 0.860835 -9.07671
ltibia 21.1576
lfoot -10.9281 11.1282
ltoes -15.472
20
root 8.08917 15.6392 -36.4868 10.5721 -8.13104 -6.29924
lowerback -5.50158 3.62419 1.74308
upperback -0.0614835 4.60542 3.81656
thorax 2.83791 2.29549 3.32334
lowerneck -22.1897 -4.45923 -12.4077
upperneck 18.5984 -4.7603 11.3843
head 10.1792 -1.77232 5.41606
rclavicle -7.20594e-014 -3.26007e-014
rhumerus -7.5703 40.3908 -80.1315
rradius 49.4175
rwrist -23.5495
rhand -32.4716 -21.0931
rfingers 7.12502
rthumb -5.7041 -50.9964
lclavicle -7.20594e-014 -3.26007e-014
lhumerus -57.7883 -1.98055 83.5214
lradius 20.3676
lwrist -1.35963
lhand -10.073 -19.9067
lfingers 7.12502
lthumb 15.9134 9.45949
rfemur 6.87493 4.60405 30.4717
rtibia 13.5498
rfoot -15.8132 7.18938
rtoes -9.47255
lfemur -46.0836 0.263789 -8.32258
ltibia 19.5883
lfoot -10.8529 11.722
ltoes -12.0844
21
root 8.10726 15.6104 -36.2383 10.4623 -8.33483 -6.35679
lowerback -5.43269 3.84414 1.7963
upperback -0.0279753 4.89869 3.7641
thorax 2.83061 2.44273 3.25805
lowerneck -21.8736 -4.59856 -12.6222
upperneck 18.1942 -4.95651 11.6525
head 10.0192 -1.85477 5.5074
rclavicle -4.72114e-014 -1.98785e-014
rhumerus -6.73004 40.4902 -79.3459
rradius 49.7942
rwrist -23.5878
rhand -32.9243 -19.1919
rfingers 7.12502
rthumb -6.14113 -49.0829
lclavicle -4.72114e-014 -1.98785e-014
lhumerus -58.1075 -0.686537 81.2484
lradius 19.3697
lwrist -3.10853
lhand -9.9352 -20.0802
lfingers 7.12502
lthumb 16.046 9.27538
rfemur 8.60701 4.10395 30.1153
rtibia 12.3956
rfoot -15.0851 7.94872
rtoes -10.9718
lfemur -46.0533 -0.196703 -7.93238
ltibia 18.5575
lfoot -11.0841 12.57
ltoes -11.7725
22
root 8.12506 15.57 -35.9902 10.3843 -8.40865 -6.40237
lowerback -5.45298 4.00952 1.81404
upperback 0.0647943 5.11466 3.73432
thorax 2.93341 2.55001 3.2405
lowerneck -21.7349 -4.76147 -12.9999
upperneck 17.7729 -5.11929 11.9695
head 9.88878 -1.92346 5.6501
rclavicle 7.55382e-014 4.21423e-014
rhumerus -5.78051 40.3564 -78.4635
rradius 50.2953
rwrist -23.3099
rhand -33.1377 -19.3858
rfingers 7.12502
rthumb -6.34717 -49.2707
lclavicle 7.55382e-014 4.21423e-014
lhumerus -58.4092 0.58971 78.9884
lradius 18.4103
lwrist -5.21602
lhand -10.3319 -20.9102
lfingers 7.12502
lthumb 15.664 8.47567
rfemur 10.3411 4.22924 29.9344
rtibia 11.1138
rfoot -14.042 8.03091
rtoes -12.0591
lfemur -46.1923 -0.220682 -7.94532
ltibia 18.0833
lfoot -11.8085 12.9511
ltoes -11.875
23
root 8.14072 15.5245 -35.7405 10.4812 -8.31064 -6.67602
lowerback -5.62434 4.08459 1.9841
upperback 0.11421 5.19158 3.81279
thorax 3.08537 2.58909 3.25097
lowerneck -21.7523 -4.85674 -13.2234
upperneck 17.5491 -5.18232 12.0697
head 9.8318 -1.95555 5.70819
rclavicle 4.45278e-014 2.8625e-014
rhumerus -4.8372 40.1376 -77.5876
rradius 50.9336
rwrist -22.9415
rhand -32.9797 -21.2208
rfingers 7.12502
rthumb -6.19465 -51.1102
lclavicle 4.45278e-014 2.8625e-014
lhumerus -58.7315 1.88263 76.9342
lradius 17.4939
lwrist -6.76007
lhand -10.8095 -21.89
lfingers 7.12502
lthumb 15.204 7.53136
rfemur 11.8273 4.32293 30.1037
rtibia 9.81652
rfoot -13.0613 7.70754
rtoes -14.9924
lfemur -46.6154 0.223664 -8.12847
ltibia 18.1288
lfoot -12.1676 12.8984
ltoes -12.4271
24
root 8.15377 15.4925 -35.4887 10.641 -8.33983 -7.2318
lowerback -5.73737 4.19789 2.42983
upperback 0.119357 5.30238 3.93463
thorax 3.17893 2.64919 3.15039
lowerneck -22.0163 -4.84483 -13.0366
upperneck 17.6357 -5.14957 11.8559
head 9.89288 -1.9436 5.60527
rclavicle -6.48038e-014 -5.96354e-015
rhumerus -4.10327 40.1039 -76.8629
rradius 51.5532
rwrist -23.0138
rhand -32.7176 -21.0368
rfingers 7.12502
rthumb -5.94158 -50.9335
lclavicle -6.48038e-014 -5.96354e-015
lhumerus -59.1376 3.48699 74.4267
lradius 16.7817
lwrist -8.87828
lhand -10.787 -21.9094
lfingers 7.12502
lthumb 15.2257 7.51031
rfemur 13.3626 4.59882 30.5411
rtibia 8.28294
rfoot -11.948 7.32855
rtoes -18.34
lfemur -47.16 1.27263 -8.43455
ltibia 18.8138
lfoot -11.9928 12.4762
ltoes -14.0674
25
root 8.16905 15.4609 -35.223 10.6866 -8.49813 -7.7195
lowerback -5.78451 4.39745 2.83389
upperback 0.12008 5.53331 4.07026
thorax 3.2235 2.76889 3.09209
lowerneck -22.0727 -5.00824 -13.4848
upperneck 17.631 -5.28935 12.1446
head 9.94414 -2.00586 5.76718
rclavicle -4.02539e-014 2.22639e-014
rhumerus -3.63981 39.9871 -76.2099
rradius 52.0125
rwrist -23.0615
rhand -32.5006 -20.3958
rfingers 7.12502
rthumb -5.73205 -50.2982
lclavicle -4.02539e-014 2.22639e-014
lhumerus -59.6781 5.36462 71.4514
lradius 16.0205
lwrist -11.7375
lhand -10.5303 -22.4381
lfingers 7.12502
lthumb 15.4729 6.96269
rfemur 15.4332 4.98377 30.845
rtibia 5.9087
rfoot -10.1135 6.94135
rtoes -18.6475
lfemur -47.6598 2.415 -8.84127
ltibia 20.1897
lfoot -11.9521 11.5136
ltoes -13.1779
26
root 8.19167 15.4028 -34.9372 10.6096 -8.34242 -7.98752
lowerback -5.89668 4.58155 3.15549
upperback 0.0488589 5.75122 4.12475
thorax 3.23224 2.88142 2.99686
lowerneck -21.5539 -5.27471 -14.271
upperneck 17.3488 -5.60608 12.8017
head 9.84562 -2.14918 6.08689
rclavicle -4.35835e-014 -4.77083e-015
rhumerus -3.73398 39.3902 -75.8528
rradius 52.3889
rwrist -22.7016
rhand -32.1412 -20.6963
rfingers 7.12502
rthumb -5.38506 -50.6079
lclavicle -4.35835e-014 -4.77083e-015
lhumerus -60.3331 6.51389 68.906
lradius 15.1726
lwrist -13.8055
lhand -10.5752 -23.7083
lfingers 7.12502
lthumb 15.4297 5.69577
rfemur 19.0109 5.0231 30.9955
rtibia 0.819326
rfoot -7.03027 6.0397
rtoes -16.4301
lfemur -48.1969 3.22532 -9.45852
ltibia 22.0195
lfoot -11.7456 10.0034
ltoes -11.201
